<mxfile host="app.diagrams.net" agent="Mozilla/5.0 (Windows NT 10.0; Win64; x64) AppleWebKit/537.36 (KHTML, like Gecko) Chrome/133.0.0.0 Safari/537.36 Edg/133.0.0.0" version="26.0.14">
  <diagram name="Page-1" id="3wJnf4GBUXae1GOCnOMd">
    <mxGraphModel dx="1760" dy="1976" grid="1" gridSize="10" guides="1" tooltips="1" connect="1" arrows="1" fold="1" page="1" pageScale="1" pageWidth="827" pageHeight="1169" math="0" shadow="0">
      <root>
        <mxCell id="0" />
        <mxCell id="1" parent="0" />
        <mxCell id="-t3yGKprGx0eFbjHEZyz-94" value="&lt;div&gt;&lt;br/&gt;&lt;/div&gt;" style="rounded=0;whiteSpace=wrap;html=1;fillColor=#eeeeee;strokeColor=#36393d;" vertex="1" parent="1">
          <mxGeometry x="50" y="-30" width="1150" height="460" as="geometry" />
        </mxCell>
        <mxCell id="-t3yGKprGx0eFbjHEZyz-19" value="Input&#xa;    512×512×1" style="whiteSpace=wrap;strokeWidth=2;fillColor=#1ba1e2;fontColor=#ffffff;strokeColor=#006EAF;labelBorderColor=none;labelBackgroundColor=none;rounded=1;" vertex="1" parent="1">
          <mxGeometry x="100" y="40" width="136" height="62" as="geometry" />
        </mxCell>
        <mxCell id="-t3yGKprGx0eFbjHEZyz-20" value="PConv Block&#xa;    256×256×16&#xa;    SepConv+IN+ReLU" style="whiteSpace=wrap;strokeWidth=2;" vertex="1" parent="1">
          <mxGeometry x="280" y="22" width="187" height="98" as="geometry" />
        </mxCell>
        <mxCell id="-t3yGKprGx0eFbjHEZyz-21" value="Encoder 0&#xa;    128×128×16&#xa;    2×ResBlock+CBAM" style="whiteSpace=wrap;strokeWidth=2;fontSize=13;" vertex="1" parent="1">
          <mxGeometry x="510" y="22" width="179.67" height="98" as="geometry" />
        </mxCell>
        <mxCell id="-t3yGKprGx0eFbjHEZyz-22" value="Encoder 1&#xa;    64×64×32&#xa;    2×ResBlock+CBAM" style="whiteSpace=wrap;strokeWidth=2;" vertex="1" parent="1">
          <mxGeometry x="730" y="20" width="188" height="102" as="geometry" />
        </mxCell>
        <mxCell id="-t3yGKprGx0eFbjHEZyz-23" value="Encoder 2&#xa;    32×32×64&#xa;    2×ResBlock+CBAM" style="whiteSpace=wrap;strokeWidth=2;" vertex="1" parent="1">
          <mxGeometry x="280" y="180" width="187" height="102" as="geometry" />
        </mxCell>
        <mxCell id="-t3yGKprGx0eFbjHEZyz-24" value="Encoder 3&#xa;    16×16×128&#xa;    2×ResBlock+CBAM" style="whiteSpace=wrap;strokeWidth=2;" vertex="1" parent="1">
          <mxGeometry x="510" y="180" width="187" height="102" as="geometry" />
        </mxCell>
        <mxCell id="-t3yGKprGx0eFbjHEZyz-25" value="Encoder 4&#xa;    8×8×256&#xa;    2×ResBlock+CBAM" style="whiteSpace=wrap;strokeWidth=2;" vertex="1" parent="1">
          <mxGeometry x="740" y="180" width="187" height="102" as="geometry" />
        </mxCell>
        <mxCell id="-t3yGKprGx0eFbjHEZyz-26" value="Global Avg Pool&#xa;    Dense (3)" style="whiteSpace=wrap;strokeWidth=2;fillColor=#1ba1e2;fontColor=#ffffff;strokeColor=#006EAF;labelBorderColor=none;labelBackgroundColor=none;rounded=1;" vertex="1" parent="1">
          <mxGeometry x="970" y="200" width="169" height="62" as="geometry" />
        </mxCell>
        <mxCell id="-t3yGKprGx0eFbjHEZyz-27" value="Total Parameters : 635,213" style="whiteSpace=wrap;strokeWidth=2;fillColor=#0050ef;fontColor=#ffffff;strokeColor=#001DBC;fontSize=14;fontStyle=1;rounded=1;arcSize=19;" vertex="1" parent="1">
          <mxGeometry x="473.5" y="320" width="260" height="60" as="geometry" />
        </mxCell>
        <mxCell id="-t3yGKprGx0eFbjHEZyz-28" value="" style="curved=1;startArrow=none;endArrow=block;exitX=0.99;exitY=0.5;entryX=0;entryY=0.5;rounded=0;" edge="1" parent="1" source="-t3yGKprGx0eFbjHEZyz-19" target="-t3yGKprGx0eFbjHEZyz-20">
          <mxGeometry relative="1" as="geometry">
            <Array as="points" />
          </mxGeometry>
        </mxCell>
        <mxCell id="-t3yGKprGx0eFbjHEZyz-29" value="" style="curved=1;startArrow=none;endArrow=block;exitX=1;exitY=0.5;entryX=0;entryY=0.5;rounded=0;" edge="1" parent="1" source="-t3yGKprGx0eFbjHEZyz-20" target="-t3yGKprGx0eFbjHEZyz-21">
          <mxGeometry relative="1" as="geometry">
            <Array as="points" />
          </mxGeometry>
        </mxCell>
        <mxCell id="-t3yGKprGx0eFbjHEZyz-30" value="" style="curved=1;startArrow=none;endArrow=block;exitX=1;exitY=0.5;entryX=0;entryY=0.5;rounded=0;" edge="1" parent="1" source="-t3yGKprGx0eFbjHEZyz-21" target="-t3yGKprGx0eFbjHEZyz-22">
          <mxGeometry relative="1" as="geometry">
            <Array as="points" />
          </mxGeometry>
        </mxCell>
        <mxCell id="-t3yGKprGx0eFbjHEZyz-31" value="" style="startArrow=none;endArrow=block;exitX=1;exitY=0.5;entryX=0;entryY=0.5;rounded=0;edgeStyle=orthogonalEdgeStyle;" edge="1" parent="1" source="-t3yGKprGx0eFbjHEZyz-22" target="-t3yGKprGx0eFbjHEZyz-23">
          <mxGeometry relative="1" as="geometry">
            <Array as="points">
              <mxPoint x="1030" y="71" />
              <mxPoint x="1030" y="151" />
              <mxPoint x="200" y="151" />
              <mxPoint x="200" y="231" />
            </Array>
          </mxGeometry>
        </mxCell>
        <mxCell id="-t3yGKprGx0eFbjHEZyz-32" value="" style="curved=1;startArrow=none;endArrow=block;exitX=1;exitY=0.5;entryX=0;entryY=0.5;rounded=0;" edge="1" parent="1" source="-t3yGKprGx0eFbjHEZyz-23" target="-t3yGKprGx0eFbjHEZyz-24">
          <mxGeometry relative="1" as="geometry">
            <Array as="points" />
          </mxGeometry>
        </mxCell>
        <mxCell id="-t3yGKprGx0eFbjHEZyz-33" value="" style="curved=1;startArrow=none;endArrow=block;exitX=1;exitY=0.5;entryX=0;entryY=0.5;rounded=0;" edge="1" parent="1" source="-t3yGKprGx0eFbjHEZyz-24" target="-t3yGKprGx0eFbjHEZyz-25">
          <mxGeometry relative="1" as="geometry">
            <Array as="points" />
          </mxGeometry>
        </mxCell>
        <mxCell id="-t3yGKprGx0eFbjHEZyz-34" value="" style="curved=1;startArrow=none;endArrow=block;exitX=1;exitY=0.5;entryX=0;entryY=0.5;rounded=0;" edge="1" parent="1" source="-t3yGKprGx0eFbjHEZyz-25" target="-t3yGKprGx0eFbjHEZyz-26">
          <mxGeometry relative="1" as="geometry">
            <Array as="points" />
          </mxGeometry>
        </mxCell>
      </root>
    </mxGraphModel>
  </diagram>
</mxfile>
